# WaveFront *.obj file (generated by Cinema 4D)

mtllib ./Scene.mtl

v -2.500000 -5.972151 5.825325
v -2.500000 -10.972151 5.825325
v 2.500000 -5.972151 5.825325
v 2.500000 -10.972151 5.825325
v 2.500000 -5.972151 10.825325
v 2.500000 -10.972151 10.825325
v -2.500000 -5.972151 10.825325
v -2.500000 -10.972151 10.825325
# 8 vertices

vn 0.000000 0.000000 -1.000000
vn 1.000000 0.000000 0.000000
vn 0.000000 0.000000 1.000000
vn 0.000000 0.000000 1.000000
vn -1.000000 0.000000 0.000000
vn 0.000000 -1.000000 0.000000
vn 0.000000 1.000000 0.000000
# 7 normals

vt 0.000000 0.000000 0.000000
vt 0.000000 1.000000 0.000000
vt 1.000000 1.000000 0.000000
vt 1.000000 0.000000 0.000000
# 4 texture coordinates

o Light
usemtl 3
f 4/3/1 2/2/1 1/1/1
f 6/3/2 4/2/2 3/1/2
f 8/3/3 6/2/4 5/1/3
f 2/3/5 8/2/5 7/1/5
f 6/3/6 8/2/6 2/1/6
f 3/3/7 1/2/7 7/1/7
f 3/4/1 4/3/1 1/1/1
f 5/4/2 6/3/2 3/1/2
f 7/4/3 8/3/3 5/1/3
f 1/4/5 2/3/5 7/1/5
f 4/4/6 6/3/6 2/1/6
f 5/4/7 3/3/7 7/1/7

v -9.900991 -6.554183 -14.168570
v 10.000000 -6.554183 -14.168570
v 10.099009 -6.554183 15.831430
v -9.900991 -6.554183 15.831430
# 4 vertices

vn 0.000000 1.000000 0.000000
# 1 normal

vt 0.000000 -1.500000 0.000000
vt 1.000000 -1.500000 0.000000
vt 1.000000 2.500000 0.000000
vt 0.000000 2.500000 0.000000
# 4 texture coordinates

o Ceiling
usemtl 0
f 11/7/8 10/6/8 9/5/8
f 12/8/8 11/7/8 9/5/8

v -0.519122 2.217054 7.310429
v -0.519122 -0.782946 7.310429
v 1.380878 2.217054 7.310429
v 1.380878 -0.782946 7.310429
v 1.018010 2.217054 8.427221
v 1.018010 -0.782946 8.427221
v 0.068010 2.217054 9.117436
v 0.068010 -0.782946 9.117436
v -1.106255 2.217054 9.117436
v -1.106255 -0.782946 9.117436
v -2.056255 2.217054 8.427221
v -2.056255 -0.782946 8.427221
v -2.419122 2.217054 7.310429
v -2.419122 -0.782946 7.310429
v -2.056255 2.217054 6.193637
v -2.056255 -0.782946 6.193637
v -1.106255 2.217054 5.503421
v -1.106255 -0.782946 5.503421
v 0.068010 2.217054 5.503421
v 0.068010 -0.782946 5.503421
v 1.018010 2.217054 6.193637
v 1.018010 -0.782946 6.193637
# 22 vertices

vn 0.815625 0.571750 0.088312
vn 0.607938 0.571750 0.550875
vn 0.815625 -0.571750 -0.088312
vn 0.711781 -0.571750 0.407937
vn -0.000000 -1.000000 0.000000
vn 0.168031 0.571750 0.803031
vn 0.336062 -0.571750 0.748406
vn -0.336062 0.571750 0.748406
vn -0.168031 -0.571750 0.803031
vn -0.711781 0.571750 0.407937
vn -0.607938 -0.571750 0.550875
vn -0.815625 0.571750 -0.088312
vn -0.815625 -0.571750 0.088312
vn -0.607938 0.571750 -0.550875
vn -0.711781 -0.571750 -0.407937
vn -0.168031 0.571750 -0.803031
vn -0.336062 -0.571750 -0.748406
vn 0.336062 0.571750 -0.748406
vn 0.168031 -0.571750 -0.803031
vn 0.711781 0.571750 -0.407937
vn 0.607938 -0.571750 -0.550875
# 21 normals

vt 0.500000 0.500000 0.000000
vt 0.000000 0.500000 0.000000
vt 0.095492 0.793893 0.000000
vt 0.100000 1.000000 0.000000
vt 1.000000 0.500000 0.000000
vt 0.904508 0.793893 0.000000
vt 0.345491 0.975528 0.000000
vt 0.100000 0.000000 0.000000
vt 0.200000 1.000000 0.000000
vt 0.654508 0.975528 0.000000
vt 0.200000 0.000000 0.000000
vt 0.300000 1.000000 0.000000
vt 0.300000 0.000000 0.000000
vt 0.400000 1.000000 0.000000
vt 0.400000 0.000000 0.000000
vt 0.500000 1.000000 0.000000
vt 0.904508 0.206107 0.000000
vt 0.500000 0.000000 0.000000
vt 0.600000 1.000000 0.000000
vt 0.095492 0.206107 0.000000
vt 0.654508 0.024472 0.000000
vt 0.600000 0.000000 0.000000
vt 0.700000 1.000000 0.000000
vt 0.345491 0.024472 0.000000
vt 0.700000 0.000000 0.000000
vt 0.800000 1.000000 0.000000
vt 0.800000 0.000000 0.000000
vt 0.900000 1.000000 0.000000
vt 0.900000 0.000000 0.000000
# 29 texture coordinates

o Cylinder
usemtl 1
f 17/11/10 15/10/9 13/9/8
f 18/12/12 16/2/11 15/1/9
f 18/14/12 14/9/13 16/13/11
f 19/15/14 17/11/10 13/9/8
f 20/17/15 18/12/12 17/16/10
f 20/18/15 14/9/13 18/14/12
f 21/18/16 19/15/14 13/9/8
f 22/20/17 20/17/15 19/19/14
f 22/15/17 14/9/13 20/18/15
f 23/14/18 21/18/16 13/9/8
f 24/22/19 22/20/17 21/21/16
f 24/11/19 14/9/13 22/15/17
f 25/13/20 23/14/18 13/9/8
f 26/24/21 24/22/19 23/23/18
f 26/10/21 14/9/13 24/11/19
f 27/25/22 25/13/20 13/9/8
f 28/27/23 26/24/21 25/26/20
f 28/28/23 14/9/13 26/10/21
f 29/29/24 27/25/22 13/9/8
f 30/31/25 28/27/23 27/30/22
f 30/32/25 14/9/13 28/28/23
f 31/32/26 29/29/24 13/9/8
f 32/34/27 30/31/25 29/33/24
f 32/29/27 14/9/13 30/32/25
f 33/28/28 31/32/26 13/9/8
f 34/36/29 32/34/27 31/35/26
f 34/25/29 14/9/13 32/29/27
f 15/10/9 33/28/28 13/9/8
f 16/3/11 34/36/29 33/37/28
f 16/13/11 14/9/13 34/25/29
f 17/16/10 18/12/12 15/1/9
f 19/19/14 20/17/15 17/16/10
f 21/21/16 22/20/17 19/19/14
f 23/23/18 24/22/19 21/21/16
f 25/26/20 26/24/21 23/23/18
f 27/30/22 28/27/23 25/26/20
f 29/33/24 30/31/25 27/30/22
f 31/35/26 32/34/27 29/33/24
f 33/37/28 34/36/29 31/35/26
f 15/4/9 16/3/11 33/37/28

v -3.442546 -1.363989 5.846998
v -3.442546 1.398096 5.846998
v -2.606939 0.017054 8.088336
v -4.680356 0.017054 9.913178
v -6.797406 -1.363989 8.799656
v -6.797406 1.398096 8.799656
v -7.633013 0.017054 6.558318
v -5.559596 0.017054 4.733476
v -4.207555 -2.217520 8.360036
v -6.032397 -2.217520 6.286618
v -6.032397 2.251627 6.286618
v -4.207555 2.251627 8.360036
# 12 vertices

vn -0.347330 -0.850625 -0.394642
vn 0.347330 -0.850625 0.394642
vn 0.638540 -0.525719 -0.561987
vn 0.956629 -0.000000 0.291210
vn 0.167345 -0.000000 0.985869
vn -0.638540 -0.525719 0.561987
vn -0.956629 0.000000 -0.291210
vn -0.167345 0.000000 -0.985869
vn 0.347330 0.850625 0.394642
vn -0.347330 0.850625 -0.394642
vn 0.638540 0.525719 -0.561987
vn -0.638540 0.525719 0.561987
# 12 normals

vt 0.700000 0.307000 0.000000
vt 0.600000 0.134000 0.000000
vt 0.500000 0.307000 0.000000
vt 0.400000 0.134000 0.000000
vt 0.200000 0.827000 0.000000
vt 0.000000 0.827000 0.000000
vt 1.000000 0.480000 0.000000
vt 0.800000 0.480000 0.000000
vt 0.900000 0.653000 0.000000
vt 0.700000 0.653000 0.000000
vt 0.600000 0.480000 0.000000
vt 0.300000 0.653000 0.000000
vt 0.500000 0.653000 0.000000
vt 0.400000 0.480000 0.000000
vt 0.300000 0.307000 0.000000
vt 0.200000 0.480000 0.000000
vt 0.100000 0.654000 0.000000
vt 0.400000 0.827000 0.000000
vt 0.600000 0.827000 0.000000
# 19 texture coordinates

o Rubby
usemtl 4
f 35/40/32 43/39/31 44/38/30
f 35/40/32 37/41/33 43/39/31
f 37/43/33 38/42/34 43/12/31
f 38/42/34 39/20/35 43/12/31
f 39/46/35 44/45/30 43/44/31
f 41/47/36 44/45/30 39/46/35
f 42/48/37 44/45/30 41/47/36
f 42/48/37 35/40/32 44/38/30
f 36/51/40 45/50/39 46/49/38
f 36/51/40 46/53/38 37/52/33
f 46/49/38 38/42/34 37/54/33
f 46/49/38 40/55/41 38/42/34
f 46/49/38 45/50/39 40/55/41
f 45/56/39 41/24/36 40/55/41
f 45/50/39 42/48/37 41/47/36
f 45/50/39 36/51/40 42/48/37
f 35/40/32 42/48/37 36/51/40
f 35/40/32 36/51/40 37/52/33
f 38/42/34 40/55/41 39/20/35
f 40/55/41 41/24/36 39/20/35

v 1.847050 2.217054 7.506787
v 1.847050 -0.282946 7.506787
v 4.482663 2.217054 4.409753
v 4.482663 -0.282946 4.409753
v 7.728510 2.217054 7.172009
v 7.728510 -0.282946 7.172009
v 5.092897 2.217054 10.269043
v 5.092897 -0.282946 10.269043
# 8 vertices

vn -0.886354 0.408219 -0.218267
vn -0.685894 -0.666656 0.291680
vn -0.357224 -0.408219 -0.840033
vn 0.178220 0.666656 -0.723716
vn 0.685894 -0.666656 -0.291680
vn 0.886354 0.408219 0.218267
vn 0.357224 -0.408219 0.840033
vn -0.178220 0.666656 0.723716
# 8 normals

# 0 texture coordinate

o Cube
usemtl 2
f 50/3/44 48/2/43 47/1/42
f 52/3/46 50/2/44 49/1/45
f 54/3/48 52/2/46 51/1/47
f 48/3/43 54/2/48 53/1/49
f 52/3/46 54/2/48 48/1/43
f 49/3/45 47/2/42 53/1/49
f 49/4/45 50/3/44 47/1/42
f 51/4/47 52/3/46 49/1/45
f 53/4/49 54/3/48 51/1/47
f 47/4/42 48/3/43 53/1/49
f 50/4/44 52/3/46 48/1/43
f 51/4/47 49/3/45 53/1/49

v -10.000000 2.177638 -14.168570
v -10.000000 -7.822362 -14.168570
v 10.000000 2.177638 -14.168570
v 10.000000 -7.822362 -14.168570
v 10.000000 2.177638 15.831430
v 10.000000 -7.822362 15.831430
v -10.000000 2.177638 15.831430
v -10.000000 -7.822362 15.831430
# 8 vertices

vn 0.408219 -0.408219 0.816469
vn -0.666656 -0.666656 0.333313
vn -0.447188 0.000000 0.894406
vn -0.408219 -0.408219 -0.816469
vn -0.894406 0.000000 -0.447188
vn 0.666656 -0.666656 -0.333313
vn 0.447188 -0.000000 -0.894406
vn 0.894406 -0.000000 0.447188
# 8 normals

vt -0.500000 0.000000 0.000000
vt 1.500000 0.000000 0.000000
vt 1.500000 1.000000 0.000000
vt -0.500000 1.000000 0.000000
vt 0.002759 -1.509655 0.000000
vt 1.002759 2.490345 0.000000
vt 0.002759 2.490345 0.000000
vt 1.002759 -1.509655 0.000000
# 8 texture coordinates

o Room
usemtl 0
f 58/3/52 57/4/51 55/1/50
f 60/59/54 59/58/53 57/57/51
f 62/3/56 61/4/55 59/1/53
f 56/59/57 55/58/50 61/57/55
f 55/63/50 57/62/51 61/61/55
f 57/62/51 59/64/53 61/61/55
f 56/2/57 58/3/52 55/1/50
f 58/60/52 60/59/54 57/57/51
f 60/2/54 62/3/56 59/1/53
f 62/60/56 56/59/57 61/57/55

