# WaveFront *.obj file (generated by Cinema 4D)

v -10.000000 -3.259089 -14.168570
v 10.000000 -3.259089 -14.168570
v 10.000000 -3.259089 15.831430
v -10.000000 -3.259089 15.831430
# 4 vertices

vn 0.000000 1.000000 0.000000
# 1 normal

vt 0.000000 0.000000 0.000000
vt 1.000000 0.000000 0.000000
vt 1.000000 1.000000 0.000000
vt 0.000000 1.000000 0.000000
# 4 texture coordinates

o Ceiling
usemtl default
f 3/3/1 2/2/1 1/1/1
f 4/4/1 3/3/1 1/1/1

v -0.519122 2.217054 7.310429
v -0.519122 -0.782946 7.310429
v 1.380878 2.217054 7.310429
v 1.380878 -0.782946 7.310429
v 1.018010 2.217054 8.427221
v 1.018010 -0.782946 8.427221
v 0.068010 2.217054 9.117436
v 0.068010 -0.782946 9.117436
v -1.106255 2.217054 9.117436
v -1.106255 -0.782946 9.117436
v -2.056255 2.217054 8.427221
v -2.056255 -0.782946 8.427221
v -2.419122 2.217054 7.310429
v -2.419122 -0.782946 7.310429
v -2.056255 2.217054 6.193637
v -2.056255 -0.782946 6.193637
v -1.106255 2.217054 5.503421
v -1.106255 -0.782946 5.503421
v 0.068010 2.217054 5.503421
v 0.068010 -0.782946 5.503421
v 1.018010 2.217054 6.193637
v 1.018010 -0.782946 6.193637
# 22 vertices

vn 0.000000 1.000000 0.000000
vn 0.994186 0.000000 0.107677
vn 0.994186 0.000000 -0.107677
vn 0.867604 0.000000 0.497255
vn 0.000000 -1.000000 0.000000
vn 0.741023 0.000000 0.671480
vn 0.409627 0.000000 0.912253
vn 0.204814 0.000000 0.978801
vn -0.204814 0.000000 0.978801
vn -0.409627 0.000000 0.912253
vn -0.741023 0.000000 0.671480
vn -0.867604 0.000000 0.497255
vn -0.994186 0.000000 0.107677
vn -0.994186 0.000000 -0.107677
vn -0.867604 0.000000 -0.497255
vn 0.000000 -1.000000 0.000000
vn -0.741023 0.000000 -0.671480
vn -0.409627 0.000000 -0.912253
vn -0.204814 0.000000 -0.978801
vn 0.204814 0.000000 -0.978801
vn 0.409627 0.000000 -0.912253
vn 0.741023 0.000000 -0.671480
vn 0.000000 -1.000000 0.000000
vn 0.867604 0.000000 -0.497255
# 24 normals

vt 0.500000 0.500000 0.000000
vt 0.000000 0.500000 0.000000
vt 0.095492 0.793893 0.000000
vt 0.100000 1.000000 0.000000
vt 1.000000 0.500000 0.000000
vt 0.904508 0.793893 0.000000
vt 0.345491 0.975528 0.000000
vt 0.100000 0.000000 0.000000
vt 0.200000 1.000000 0.000000
vt 0.654508 0.975528 0.000000
vt 0.200000 0.000000 0.000000
vt 0.300000 1.000000 0.000000
vt 0.300000 0.000000 0.000000
vt 0.400000 1.000000 0.000000
vt 0.400000 0.000000 0.000000
vt 0.500000 1.000000 0.000000
vt 0.904508 0.206107 0.000000
vt 0.500000 0.000000 0.000000
vt 0.600000 1.000000 0.000000
vt 0.095492 0.206107 0.000000
vt 0.654508 0.024472 0.000000
vt 0.600000 0.000000 0.000000
vt 0.700000 1.000000 0.000000
vt 0.345491 0.024472 0.000000
vt 0.700000 0.000000 0.000000
vt 0.800000 1.000000 0.000000
vt 0.800000 0.000000 0.000000
vt 0.900000 1.000000 0.000000
vt 0.900000 0.000000 0.000000
# 29 texture coordinates

o Cylinder
usemtl default
f 9/7/2 7/6/2 5/5/2
f 10/8/5 8/4/4 7/1/3
f 10/10/6 6/5/6 8/9/6
f 11/11/2 9/7/2 5/5/2
f 12/13/8 10/8/5 9/12/7
f 12/14/6 6/5/6 10/10/6
f 13/14/2 11/11/2 5/5/2
f 14/16/10 12/13/8 11/15/9
f 14/11/6 6/5/6 12/14/6
f 15/10/2 13/14/2 5/5/2
f 16/18/12 14/16/10 13/17/11
f 16/7/6 6/5/6 14/11/6
f 17/9/2 15/10/2 5/5/2
f 18/20/14 16/18/12 15/19/13
f 18/6/6 6/5/6 16/7/6
f 19/21/2 17/9/2 5/5/2
f 20/23/16 18/20/14 17/22/15
f 20/24/17 6/5/6 18/6/6
f 21/25/2 19/21/2 5/5/2
f 22/27/19 20/23/16 19/26/18
f 22/28/6 6/5/6 20/24/17
f 23/28/2 21/25/2 5/5/2
f 24/30/21 22/27/19 21/29/20
f 24/25/6 6/5/6 22/28/6
f 25/24/2 23/28/2 5/5/2
f 26/32/23 24/30/21 23/31/22
f 26/21/24 6/5/6 24/25/6
f 7/6/2 25/24/2 5/5/2
f 8/3/4 26/32/23 25/33/25
f 8/9/6 6/5/6 26/21/24
f 9/12/7 10/8/5 7/1/3
f 11/15/9 12/13/8 9/12/7
f 13/17/11 14/16/10 11/15/9
f 15/19/13 16/18/12 13/17/11
f 17/22/15 18/20/14 15/19/13
f 19/26/18 20/23/16 17/22/15
f 21/29/20 22/27/19 19/26/18
f 23/31/22 24/30/21 21/29/20
f 25/33/25 26/32/23 23/31/22
f 7/2/3 8/3/4 25/33/25

v -3.442546 -1.363989 5.846998
v -3.442546 1.398096 5.846998
v -2.606939 0.017054 8.088336
v -4.680356 0.017054 9.913178
v -6.797406 -1.363989 8.799656
v -6.797406 1.398096 8.799656
v -7.633013 0.017054 6.558318
v -5.559596 0.017054 4.733476
v -4.207555 -2.217520 8.360036
v -6.032397 -2.217520 6.286618
v -6.032397 2.251627 6.286618
v -4.207555 2.251627 8.360036
# 12 vertices

vn 0.267856 -0.934172 -0.235744
vn 0.814842 -0.577350 0.051959
vn 0.617185 -0.356822 0.701256
vn -0.051959 -0.577350 0.814842
vn -0.267856 -0.934172 0.235744
vn -0.814842 -0.577350 -0.051959
vn -0.617185 -0.356822 -0.701256
vn 0.051959 -0.577350 -0.814842
vn 0.267856 0.934172 -0.235744
vn 0.814842 0.577350 0.051959
vn 0.617185 0.356822 0.701256
vn -0.051959 0.577350 0.814842
vn -0.267856 0.934172 0.235744
vn -0.814842 0.577350 -0.051959
vn -0.617185 0.356822 -0.701256
vn 0.051959 0.577350 -0.814842
vn 0.465513 0.000000 -0.885041
vn 0.937000 0.000000 -0.349329
vn -0.465513 0.000000 0.885041
vn -0.937000 0.000000 0.349329
# 20 normals

vt 0.700000 0.307000 0.000000
vt 0.600000 0.134000 0.000000
vt 0.500000 0.307000 0.000000
vt 0.400000 0.134000 0.000000
vt 0.200000 0.827000 0.000000
vt 0.000000 0.827000 0.000000
vt 1.000000 0.480000 0.000000
vt 0.800000 0.480000 0.000000
vt 0.900000 0.653000 0.000000
vt 0.700000 0.653000 0.000000
vt 0.600000 0.480000 0.000000
vt 0.300000 0.653000 0.000000
vt 0.500000 0.653000 0.000000
vt 0.400000 0.480000 0.000000
vt 0.300000 0.307000 0.000000
vt 0.200000 0.480000 0.000000
vt 0.100000 0.654000 0.000000
vt 0.400000 0.827000 0.000000
vt 0.600000 0.827000 0.000000
# 19 texture coordinates

o Rubby
usemtl ??
f 27/36/26 35/35/26 36/34/26
f 27/36/27 29/37/27 35/35/27
f 29/39/28 30/38/28 35/8/28
f 30/38/29 31/16/29 35/8/29
f 31/42/30 36/41/30 35/40/30
f 33/43/31 36/41/31 31/42/31
f 34/44/32 36/41/32 33/43/32
f 34/44/33 27/36/33 36/34/33
f 28/47/34 37/46/34 38/45/34
f 28/47/35 38/49/35 29/48/35
f 38/45/36 30/38/36 29/50/36
f 38/45/37 32/51/37 30/38/37
f 38/45/38 37/46/38 32/51/38
f 37/52/39 33/20/39 32/51/39
f 37/46/40 34/44/40 33/43/40
f 37/46/41 28/47/41 34/44/41
f 27/36/42 34/44/42 28/47/42
f 27/36/43 28/47/43 29/48/43
f 30/38/44 32/51/44 31/16/44
f 32/51/45 33/20/45 31/16/45

v 1.847050 2.217054 7.506787
v 1.847050 -0.282946 7.506787
v 4.482663 2.217054 4.409753
v 4.482663 -0.282946 4.409753
v 7.728510 2.217054 7.172009
v 7.728510 -0.282946 7.172009
v 5.092897 2.217054 10.269043
v 5.092897 -0.282946 10.269043
# 8 vertices

vn -0.761559 0.000000 -0.648096
vn -0.761559 0.000000 -0.648096
vn 0.648096 0.000000 -0.761559
vn 0.648096 0.000000 -0.761559
vn 0.761559 0.000000 0.648096
vn 0.761559 0.000000 0.648096
vn -0.648096 0.000000 0.761559
vn 0.000000 1.000000 0.000000
# 8 normals

# 0 texture coordinate

o Cube
usemtl default
f 42/3/46 40/4/47 39/1/46
f 44/3/48 42/4/49 41/1/48
f 46/3/50 44/4/51 43/1/50
f 40/3/52 46/4/52 45/1/52
f 44/3/6 46/4/17 40/1/6
f 41/3/2 39/4/2 45/1/2
f 41/2/47 42/3/46 39/1/46
f 43/2/49 44/3/48 41/1/48
f 45/2/50 46/3/50 43/1/50
f 39/2/52 40/3/52 45/1/52
f 42/2/6 44/3/6 40/1/6
f 43/2/53 41/3/2 45/1/2

v -10.000000 2.177638 -14.168570
v -10.000000 -7.822362 -14.168570
v 10.000000 2.177638 -14.168570
v 10.000000 -7.822362 -14.168570
v 10.000000 2.177638 15.831430
v 10.000000 -7.822362 15.831430
v -10.000000 2.177638 15.831430
v -10.000000 -7.822362 15.831430
# 8 vertices

vn 0.000000 0.000000 1.000000
vn -1.000000 0.000000 0.000000
vn 0.000000 0.000000 -1.000000
vn 1.000000 -0.000000 0.000000
vn 1.000000 0.000000 0.000000
vn 1.000000 -0.000000 0.000000
# 6 normals

# 0 texture coordinate

o Room
usemtl default
f 50/3/54 49/2/54 47/1/54
f 52/3/55 51/2/55 49/1/55
f 54/3/56 53/2/56 51/1/56
f 48/3/57 47/2/58 53/1/57
f 47/4/6 49/3/6 53/1/6
f 49/3/6 51/2/17 53/1/6
f 48/4/54 50/3/54 47/1/54
f 50/4/55 52/3/55 49/1/55
f 52/4/56 54/3/56 51/1/56
f 54/4/59 48/3/57 53/1/57

